<?xml version="1.0" standalone="no"?>
<!DOCTYPE svg PUBLIC "-//W3C//DTD SVG 20010904//EN"
 "http://www.w3.org/TR/2001/REC-SVG-20010904/DTD/svg10.dtd">
<svg version="1.0" xmlns="http://www.w3.org/2000/svg"
 width="221.000000pt" height="68.000000pt" viewBox="0 0 221.000000 68.000000"
 preserveAspectRatio="xMidYMid meet">

<g transform="translate(0.000000,68.000000) scale(0.100000,-0.100000)"
fill="#000000" stroke="none">
<path d="M270 530 c-11 -11 -20 -28 -20 -38 0 -29 56 -135 88 -165 l28 -27 37
31 38 31 -44 47 c-56 60 -70 87 -63 117 6 21 3 24 -19 24 -14 0 -34 -9 -45
-20z"/>
<path d="M575 504 c-8 -20 -15 -40 -15 -43 0 -18 -151 -161 -169 -161 -6 0
-11 -4 -11 -9 0 -9 -48 -30 -84 -38 -29 -5 -31 -10 -16 -37 18 -34 46 -38 96
-15 24 10 45 19 48 19 21 0 178 156 196 195 21 47 23 90 5 109 -24 24 -33 20
-50 -20z"/>
<path d="M417 509 c7 -7 15 -10 18 -7 3 3 -2 9 -12 12 -14 6 -15 5 -6 -5z"/>
<path d="M710 490 c0 -11 5 -20 10 -20 6 0 10 5 10 11 0 5 5 7 10 4 6 -3 10
-22 10 -41 0 -19 -4 -34 -10 -34 -5 0 -10 -4 -10 -10 0 -5 14 -10 30 -10 17 0
30 5 30 10 0 6 -4 10 -10 10 -5 0 -10 18 -10 40 0 22 5 40 10 40 6 0 10 -4 10
-10 0 -5 5 -10 10 -10 6 0 10 9 10 20 0 17 -7 20 -50 20 -43 0 -50 -3 -50 -20z"/>
<path d="M825 450 l0 -60 47 0 c37 0 50 5 62 22 36 50 3 98 -66 98 l-43 0 0
-60z m87 15 c13 -29 -3 -55 -33 -55 -15 0 -19 8 -19 40 0 33 3 40 20 40 12 0
25 -10 32 -25z"/>
<path d="M965 450 c0 -55 2 -60 22 -60 19 0 21 4 17 43 -4 40 -3 41 8 16 17
-35 29 -36 45 -2 13 28 13 27 9 -14 -4 -39 -2 -43 17 -43 20 0 22 5 22 60 0
58 -1 60 -26 60 -18 0 -28 -7 -36 -27 l-10 -28 -8 28 c-5 21 -13 27 -34 27
-25 0 -26 -2 -26 -60z"/>
<path d="M487 459 c12 -12 25 -20 28 -17 3 3 -7 13 -22 23 l-28 17 22 -23z"/>
<path d="M600 341 c0 -6 4 -13 10 -16 6 -3 7 1 4 9 -7 18 -14 21 -14 7z"/>
<path d="M710 320 c0 -11 5 -20 10 -20 6 0 10 5 10 10 0 6 5 10 10 10 6 0 10
-15 10 -34 0 -19 -4 -38 -10 -41 -20 -12 -9 -25 20 -25 17 0 30 5 30 10 0 6
-4 10 -10 10 -5 0 -10 18 -10 40 0 22 5 40 10 40 6 0 10 -4 10 -10 0 -5 5 -10
10 -10 6 0 10 9 10 20 0 17 -7 20 -50 20 -43 0 -50 -3 -50 -20z"/>
<path d="M825 280 c0 -56 2 -60 23 -60 19 0 21 4 16 25 -5 19 -2 25 10 25 10
0 16 -9 16 -25 0 -23 3 -25 51 -25 46 0 50 2 44 20 -5 17 -2 20 20 20 22 0 25
-3 20 -20 -6 -18 -2 -20 50 -20 42 0 56 3 52 13 -24 65 -13 79 17 22 27 -49
46 -46 46 9 0 24 3 51 6 60 5 12 0 16 -20 16 -23 0 -25 -3 -20 -32 l6 -33 -22
33 c-15 22 -30 32 -48 32 -20 0 -23 -3 -14 -12 18 -18 16 -88 -3 -88 -20 0
-38 47 -30 77 5 21 2 23 -41 23 -39 0 -45 -3 -40 -17 9 -22 -12 -83 -29 -83
-16 0 -26 45 -12 59 22 22 -2 41 -50 41 l-48 0 0 -60z m68 25 c1 -5 -6 -11
-15 -13 -11 -2 -18 3 -18 13 0 17 30 18 33 0z m127 -17 c0 -5 -7 -8 -15 -8
-17 0 -18 2 -9 25 5 13 8 14 15 3 5 -7 9 -16 9 -20z"/>
<path d="M1221 326 c-18 -21 3 -56 34 -56 13 0 27 -5 30 -10 9 -15 -24 -25
-38 -11 -17 17 -37 13 -37 -8 0 -15 8 -19 44 -19 72 -2 90 47 26 69 -39 14
-39 33 0 24 23 -5 30 -3 30 9 0 21 -72 22 -89 2z"/>
<path d="M1335 280 c0 -55 2 -60 22 -60 17 0 22 5 20 22 -1 16 5 23 23 28 20
5 25 12 25 35 0 28 -2 30 -45 33 l-45 3 0 -61z m68 33 c9 -9 -13 -34 -24 -27
-14 8 -11 34 4 34 8 0 17 -3 20 -7z"/>
<path d="M1461 326 c-19 -23 -17 -77 4 -92 61 -45 141 20 100 82 -12 18 -24
24 -54 24 -21 0 -44 -6 -50 -14z m79 -25 c5 -11 10 -22 10 -25 0 -8 -31 -36
-40 -36 -11 0 -40 29 -40 40 0 14 30 40 45 40 8 0 19 -9 25 -19z"/>
<path d="M1595 280 c0 -56 2 -60 23 -60 19 0 21 4 16 25 -5 19 -2 25 10 25 10
0 16 -9 16 -25 0 -19 5 -25 21 -25 17 0 19 4 13 23 -4 12 -6 39 -6 60 l2 37
-48 0 -47 0 0 -60z m65 25 c0 -8 -7 -15 -15 -15 -8 0 -15 7 -15 15 0 8 7 15
15 15 8 0 15 -7 15 -15z"/>
<path d="M1707 320 c5 -17 8 -18 21 -8 13 11 14 7 10 -40 -5 -48 -4 -52 17
-52 20 0 22 4 17 50 -3 33 -1 50 7 50 6 0 11 -4 11 -10 0 -5 5 -10 10 -10 6 0
10 9 10 20 0 18 -7 20 -54 20 -49 0 -54 -2 -49 -20z"/>
<path d="M1825 280 l0 -60 53 0 c45 0 52 3 52 20 0 21 -15 27 -25 10 -9 -14
-45 -13 -45 1 0 7 8 18 18 25 16 12 16 13 0 19 -10 4 -18 11 -18 16 0 12 37
11 45 -1 10 -17 25 -11 25 10 0 17 -7 20 -52 20 l-53 0 0 -60z"/>
<path d="M1957 333 c-4 -3 -7 -17 -7 -29 0 -18 8 -25 32 -32 17 -4 33 -13 36
-20 4 -14 -34 -16 -43 -2 -10 16 -25 11 -25 -8 0 -15 8 -19 39 -20 67 -3 83
48 21 69 -39 14 -39 33 0 24 23 -5 30 -3 30 9 0 12 -10 16 -38 16 -21 0 -42
-3 -45 -7z"/>
<path d="M632 276 c-2 -18 -19 -19 -77 -2 -14 4 -31 -4 -54 -24 l-35 -29 38
-16 c63 -26 90 -28 115 -8 18 15 22 26 18 58 -2 22 -4 32 -5 21z"/>
</g>
</svg>
